<?xml version="1.0" encoding="UTF-8"?>
<svg width="89px" height="82px" viewBox="0 0 89 82" version="1.1" xmlns="http://www.w3.org/2000/svg" xmlns:xlink="http://www.w3.org/1999/xlink">
    <!-- Generator: Sketch 42 (36781) - http://www.bohemiancoding.com/sketch -->
    <title>change-monitor-white</title>
    <desc>Created with Sketch.</desc>
    <defs></defs>
    <g id="Page-1" stroke="none" stroke-width="1" fill="none" fill-rule="evenodd">
        <g id="change-monitor-white" fill-rule="nonzero" fill="#FFFFFF">
            <g id="noun_883770_cc" transform="translate(5.000000, 5.000000)">
                <g id="Group">
                    <path d="M77.2304,60.1972683 L1.7696,60.1972683 C0.791755556,60.1972683 0,59.4035122 0,58.4262439 L0,1.77102439 C0,0.792878049 0.791755556,0 1.7696,0 L77.2312778,0 C78.2082444,0 79,0.792878049 79,1.77102439 L79,58.4262439 C79,59.4035122 78.2082444,60.1972683 77.2304,60.1972683 Z M3.53656667,56.6552195 L75.4625556,56.6552195 L75.4625556,3.54117073 L3.53656667,3.54117073 L3.53656667,56.6552195 Z" id="Shape"></path>
                    <path d="M68.9775333,51.9339512 L10.0224667,51.9339512 C9.04637778,51.9339512 8.25286667,51.1410732 8.25286667,50.1629268 L8.25286667,10.0325854 C8.25286667,9.05531707 9.0455,8.26243902 10.0224667,8.26243902 L68.9775333,8.26243902 C69.9536222,8.26243902 70.7471333,9.05443902 70.7471333,10.0325854 L70.7471333,50.1638049 C70.7471333,51.1410732 69.9536222,51.9339512 68.9775333,51.9339512 Z M11.7911889,48.3936585 L67.2096889,48.3936585 L67.2096889,11.8027317 L11.7911889,11.8027317 L11.7911889,48.3936585 Z" id="Shape"></path>
                    <path d="M47.7528667,72 L31.2471333,72 C30.2701667,72 29.4775333,71.207122 29.4775333,70.2289756 L29.4775333,58.4262439 C29.4775333,57.4489756 30.2692889,56.6552195 31.2471333,56.6552195 L47.7537444,56.6552195 C48.7307111,56.6552195 49.5233444,57.4480976 49.5233444,58.4262439 L49.5233444,70.2289756 C49.5224667,71.207122 48.7307111,72 47.7528667,72 Z M33.0141,68.4588293 L45.9850222,68.4588293 L45.9850222,60.1972683 L33.0141,60.1972683 L33.0141,68.4588293 Z" id="Shape"></path>
                    <rect id="Rectangle-path" x="10.0224667" y="68.4588293" width="58.9550667" height="3.54117073"></rect>
                    <path d="M32.4461778,39.7044878 L24.1002667,31.3498537 C23.4094556,30.6579512 23.4094556,29.538439 24.1002667,28.8465366 L32.4461778,20.4910244 L34.9469667,22.9952195 L27.8527667,30.0986341 L34.9469667,37.2002927 L32.4461778,39.7044878 Z" id="Shape"></path>
                    <path d="M46.5538222,39.7044878 L44.0530333,37.2002927 L51.1472333,30.0986341 L44.0530333,22.9952195 L46.5538222,20.4910244 L54.8997333,28.8465366 C55.5905444,29.537561 55.5905444,30.6579512 54.8997333,31.3498537 L46.5538222,39.7044878 Z" id="Shape"></path>
                    <rect id="Rectangle-path" transform="translate(39.501515, 30.099902) rotate(12.561744) translate(-39.501515, -30.099902) " x="37.7318469" y="21.5399119" width="3.53933707" height="17.1199801"></rect>
                </g>
            </g>
        </g>
    </g>
</svg>